<?xml version="1.0"?>
<svg xmlns="http://www.w3.org/2000/svg" xmlns:xlink="http://www.w3.org/1999/xlink" version="1.1" id="Capa_1" x="0px" y="0px" viewBox="0 0 512 512" style="enable-background:new 0 0 512 512;" xml:space="preserve" width="512px" height="512px"><g><g>
	<g>
		<path d="M373.333,0c-2.837,0-5.568,0.277-7.979,0.747C329.408,6.827,279.083,44.971,256,86.848    c-23.083-41.877-73.365-80-109.056-86.037C144.256,0.277,141.504,0,138.667,0C115.136,0,96,19.136,96,42.667    c0,9.835,3.435,19.456,9.664,27.051c0.128,0.128,0.235,0.277,0.363,0.427c27.52,34.901,109.781,51.157,139.307,56V512h21.333    V126.144c29.525-4.843,111.765-21.099,139.285-56c0.128-0.128,0.256-0.277,0.363-0.405C412.565,62.144,416,52.523,416,42.667    C416,19.136,396.864,0,373.333,0z M122.389,56.427c-0.235-0.299-0.469-0.597-0.725-0.853c-2.837-3.733-4.331-8.171-4.331-12.907    c0-11.755,9.579-21.333,21.333-21.333c1.408,0,2.795,0.128,4.437,0.448c32,5.397,80.256,44.096,97.621,81.877    C203.563,96.832,140.885,80.832,122.389,56.427z M390.336,55.552c-0.256,0.277-0.491,0.555-0.725,0.875    c-18.453,24.363-81.173,40.384-118.315,47.232c17.344-37.781,65.664-76.459,97.877-81.92c1.344-0.277,2.752-0.405,4.16-0.405    c11.776,0,21.333,9.579,21.333,21.333C394.667,47.403,393.173,51.84,390.336,55.552z" data-original="#000000" class="active-path" data-old_color="#000000" fill="#DE486D"/>
	</g>
</g><g>
	<g>
		<path d="M224,501.333V234.667H32v266.667C32,507.221,36.779,512,42.667,512h183.296C224.768,508.651,224,505.088,224,501.333z" data-original="#000000" class="active-path" data-old_color="#000000" fill="#DE486D"/>
	</g>
</g><g>
	<g>
		<path d="M116.672,106.667H21.333c-5.888,0-10.667,4.779-10.667,10.667v85.333c0,5.888,4.779,10.667,10.667,10.667H224v-69.355    C190.891,137.515,147.755,125.995,116.672,106.667z" data-original="#000000" class="active-path" data-old_color="#000000" fill="#DE486D"/>
	</g>
</g><g>
	<g>
		<path d="M490.667,106.667h-95.339c-31.125,19.328-74.219,30.848-107.328,37.312v69.355h202.667    c5.888,0,10.667-4.779,10.667-10.667v-85.333C501.333,111.445,496.555,106.667,490.667,106.667z" data-original="#000000" class="active-path" data-old_color="#000000" fill="#DE486D"/>
	</g>
</g><g>
	<g>
		<path d="M288,234.667v266.667c0,3.755-0.768,7.317-1.963,10.667h183.296c5.888,0,10.667-4.779,10.667-10.667V234.667H288z" data-original="#000000" class="active-path" data-old_color="#000000" fill="#DE486D"/>
	</g>
</g></g> </svg>
